PathFileType	4	(X/Y/Z)	/tmp/tmpfbxcaoho/Subject7/MarkerData/Take_2_10hz_segment_0.trc
DataRate	CameraRate	NumFrames	NumMarkers	Units	OrigDataRate	OrigDataStartFrame	OrigNumFrames
50.0148	50.0148	11	35	m	50.0148	1750	2000
Frame#	Time	C7			CLAV			LANK			LASI			LBHD			LELB			LFHD			LFIN			LFRM			LHEE			LKNE			LSHO			LTHI			LTIB			LTOE			LUPA			LWRA			LWRB			RASI			RBAK			RBHD			RELB			RFHD			RFIN			RFRM			RHEE			RKNE			RSHO			RTHI			RTOE			RUPA			RWRA			RWRB			STRN			T10		
		X1	Y1	Z1	X2	Y2	Z2	X3	Y3	Z3	X4	Y4	Z4	X5	Y5	Z5	X6	Y6	Z6	X7	Y7	Z7	X8	Y8	Z8	X9	Y9	Z9	X10	Y10	Z10	X11	Y11	Z11	X12	Y12	Z12	X13	Y13	Z13	X14	Y14	Z14	X15	Y15	Z15	X16	Y16	Z16	X17	Y17	Z17	X18	Y18	Z18	X19	Y19	Z19	X20	Y20	Z20	X21	Y21	Z21	X22	Y22	Z22	X23	Y23	Z23	X24	Y24	Z24	X25	Y25	Z25	X26	Y26	Z26	X27	Y27	Z27	X28	Y28	Z28	X29	Y29	Z29	X30	Y30	Z30	X31	Y31	Z31	X32	Y32	Z32	X33	Y33	Z33	X34	Y34	Z34	X35	Y35	Z35

1751	35.0096	0.806579	1.29851	-0.13559	0.810072	1.19915	-0.250713	0.571396	0.0985354	0.21536	0.667311	0.779944	-0.139631	0.706361	1.44114	-0.185885	0.652679	1.12311	-0.437913	0.807856	1.45567	-0.343382	1.00179	1.08351	-0.588333	0.787155	1.07948	-0.515089	0.655279	0.0361695	0.265793	0.504559	0.411349	-0.0178776	0.649631	1.26918	-0.203975	0.551174	0.575267	-0.0614154	0.527688	0.268045	0.118296	0.470679	0.0335945	0.0689116	0.619213	1.17666	-0.311139	0.928782	1.13832	-0.549197	0.912314	1.06745	-0.593654	0.925116	0.807763	-0.21534	0.896438	1.18155	-0.0514962	0.798696	1.4504	-0.137796	1.19791	1.08821	-0.272336	0.889047	1.46734	-0.280904	1.36859	1.03521	-0.530233	1.3051	1.0374	-0.360241	1.14344	0.0175834	-0.245761	0.949968	0.444725	-0.361742	0.966916	1.24973	-0.220692	0.947658	0.647803	-0.285282	0.929822	0.0193392	-0.401833	1.1123	1.14255	-0.249514	1.31659	0.971951	-0.515739	1.38762	1.0064	-0.47476	0.792586	1.02767	-0.278798	0.817721	0.979238	-0.0116157
1752	35.0296	0.792783	1.30011	-0.116926	0.78907	1.20159	-0.233175	0.572006	0.0975917	0.214954	0.655704	0.780566	-0.117703	0.690749	1.44315	-0.158184	0.618254	1.13869	-0.413148	0.780266	1.46019	-0.322797	0.963651	1.129	-0.574874	0.752154	1.1072	-0.496229	0.658572	0.0361908	0.26231	0.493021	0.413363	-0.00790934	0.633574	1.27205	-0.173922	0.540797	0.578008	-0.0444915	0.522088	0.267898	0.1229	0.46849	0.0335848	0.0703292	0.59405	1.18567	-0.281786	0.887734	1.17659	-0.53198	0.875266	1.10674	-0.57927	0.908894	0.809108	-0.20733	0.886749	1.18228	-0.0392031	0.786081	1.451	-0.117084	1.1751	1.0785	-0.264577	0.866088	1.47049	-0.265514	1.34029	1.00303	-0.518928	1.27882	1.01804	-0.350007	1.14373	0.0169841	-0.24639	0.944953	0.44529	-0.352254	0.947782	1.25207	-0.212657	0.936789	0.64895	-0.277294	0.929847	0.0193382	-0.401715	1.09141	1.13664	-0.243659	1.28594	0.942474	-0.500891	1.35887	0.976613	-0.46217	0.76888	1.03062	-0.262121	0.811327	0.979483	0.00356079
1753	35.0496	0.779716	1.30168	-0.0967709	0.767631	1.20421	-0.213817	0.572335	0.0964714	0.214835	0.644324	0.781447	-0.0940613	0.676718	1.44531	-0.128118	0.581796	1.15394	-0.383291	0.752343	1.46474	-0.299366	0.919228	1.17193	-0.558488	0.712837	1.13403	-0.47324	0.661359	0.0358077	0.259123	0.482904	0.415223	0.00310545	0.618592	1.2751	-0.141293	0.531448	0.58056	-0.0261936	0.516993	0.267635	0.128392	0.466363	0.033602	0.0717519	0.568784	1.19466	-0.24835	0.842185	1.21245	-0.510678	0.832088	1.14455	-0.561355	0.891352	0.810731	-0.198239	0.877864	1.18295	-0.0262296	0.77488	1.45203	-0.0948589	1.14975	1.06879	-0.258727	0.84262	1.47375	-0.2488	1.30407	0.971766	-0.511438	1.24822	0.999175	-0.34277	1.14406	0.0166852	-0.246893	0.940361	0.445867	-0.342321	0.927921	1.25415	-0.203699	0.925777	0.650148	-0.269065	0.929885	0.0193543	-0.401614	1.06864	1.13047	-0.238398	1.24812	0.914024	-0.488718	1.32348	0.947928	-0.453726	0.744864	1.03537	-0.242392	0.805616	0.979644	0.019316
1754	35.0696	0.767168	1.30295	-0.0753385	0.745746	1.20678	-0.192408	0.571777	0.0950557	0.215644	0.632935	0.782385	-0.0694659	0.664196	1.44753	-0.0958519	0.543085	1.16774	-0.347813	0.724455	1.46925	-0.272679	0.86804	1.20897	-0.539534	0.668688	1.15791	-0.445851	0.662682	0.0352536	0.257628	0.473979	0.416309	0.014229	0.604477	1.27786	-0.106292	0.522696	0.582312	-0.00778826	0.511638	0.266798	0.134378	0.465077	0.0335853	0.0727103	0.543452	1.20281	-0.210748	0.792195	1.24316	-0.485577	0.782107	1.17798	-0.539889	0.872749	0.812259	-0.188246	0.869334	1.18329	-0.0125709	0.764863	1.4532	-0.0712308	1.12175	1.05897	-0.254056	0.818776	1.47696	-0.230355	1.26131	0.941715	-0.506231	1.21353	0.980709	-0.337632	1.14455	0.0167615	-0.246825	0.935659	0.446253	-0.331878	0.907166	1.25587	-0.193627	0.914202	0.651048	-0.260296	0.929851	0.0193725	-0.401495	1.04363	1.12403	-0.233227	1.20391	0.887449	-0.47862	1.28209	0.920256	-0.447951	0.720881	1.03941	-0.218796	0.800142	0.97945	0.0355061
1755	35.0896	0.755354	1.30441	-0.0535398	0.724269	1.20951	-0.169233	0.570629	0.093452	0.21735	0.621947	0.783829	-0.0454245	0.653808	1.45002	-0.061582	0.503542	1.17879	-0.307182	0.696132	1.47462	-0.242968	0.810903	1.23991	-0.519163	0.621039	1.17771	-0.414416	0.662798	0.0346164	0.257622	0.46637	0.417316	0.0254076	0.591277	1.2803	-0.0700966	0.514774	0.583832	0.00969241	0.506383	0.265682	0.140757	0.464663	0.0335316	0.0731771	0.518828	1.20936	-0.169921	0.738618	1.26833	-0.457962	0.726402	1.20598	-0.515371	0.854298	0.813999	-0.178459	0.861095	1.18378	0.000824443	0.756521	1.45459	-0.0470814	1.09121	1.04969	-0.250486	0.794175	1.4809	-0.210405	1.21224	0.912019	-0.502181	1.17505	0.962918	-0.334235	1.14513	0.0169742	-0.246455	0.930966	0.446295	-0.320942	0.885749	1.25801	-0.183153	0.902161	0.651526	-0.251505	0.929731	0.0194128	-0.401339	1.01666	1.11818	-0.2285	1.1542	0.862359	-0.468418	1.2351	0.893295	-0.443509	0.697514	1.04262	-0.193706	0.7952	0.979298	0.0510203
1756	35.1096	0.744857	1.30744	-0.0322573	0.704225	1.21373	-0.145715	0.569567	0.0921686	0.219211	0.611756	0.787355	-0.0234373	0.646197	1.45349	-0.0265421	0.465304	1.18846	-0.262976	0.667814	1.48199	-0.210973	0.75006	1.26703	-0.497996	0.572086	1.19505	-0.379886	0.662649	0.0341629	0.257895	0.460576	0.419489	0.0367749	0.579898	1.2838	-0.0343136	0.507995	0.586444	0.0257662	0.502409	0.265262	0.147471	0.464632	0.0334698	0.0733843	0.496002	1.21587	-0.127464	0.683459	1.2901	-0.428574	0.667224	1.23037	-0.488313	0.836311	0.817125	-0.170017	0.853404	1.1858	0.012652	0.750114	1.4574	-0.0236278	1.05846	1.0425	-0.248794	0.768871	1.48717	-0.189637	1.15724	0.883479	-0.498496	1.13327	0.947124	-0.332642	1.14573	0.0171382	-0.246258	0.927219	0.446564	-0.30911	0.864302	1.26224	-0.172906	0.890013	0.652348	-0.243242	0.929602	0.019515	-0.401156	0.988345	1.11455	-0.225107	1.1	0.839155	-0.457437	1.18336	0.868113	-0.439888	0.675531	1.04745	-0.169854	0.791035	0.980528	0.0647095
1757	35.1296	0.735697	1.31078	-0.012178	0.685433	1.21853	-0.122869	0.568806	0.0913465	0.220829	0.602125	0.791584	-0.00262998	0.641646	1.45668	0.00754412	0.429472	1.1977	-0.216519	0.641377	1.4897	-0.177529	0.687698	1.292	-0.474201	0.523429	1.21134	-0.342734	0.66272	0.0340697	0.2577	0.454982	0.422351	0.0487607	0.570843	1.28759	-9.44014e-05	0.501493	0.589533	0.0415899	0.499124	0.265495	0.154557	0.464596	0.0334126	0.0734681	0.475637	1.22242	-0.0847151	0.628369	1.30989	-0.396978	0.606842	1.25319	-0.458203	0.816985	0.821196	-0.16364	0.846176	1.18814	0.0225988	0.745525	1.46029	-0.00182642	1.02442	1.03701	-0.249496	0.744232	1.49427	-0.168506	1.09933	0.858719	-0.494984	1.08958	0.933832	-0.333079	1.14635	0.0171213	-0.246201	0.924026	0.446818	-0.296804	0.843155	1.26706	-0.163013	0.877096	0.653003	-0.235576	0.929592	0.0196428	-0.401033	0.959361	1.11259	-0.222956	1.04412	0.819032	-0.446556	1.12892	0.846409	-0.437603	0.65484	1.05311	-0.147569	0.787558	0.982401	0.076704
1758	35.1496	0.726721	1.3123	0.00688132	0.666765	1.22172	-0.100223	0.568081	0.0904102	0.222255	0.59212	0.794326	0.018966	0.639069	1.45804	0.0390744	0.396452	1.20346	-0.167843	0.617523	1.49508	-0.143996	0.623973	1.31507	-0.445858	0.475925	1.22468	-0.302175	0.662803	0.0339616	0.257395	0.448411	0.423916	0.060161	0.562869	1.28926	0.0328364	0.494214	0.591176	0.0572083	0.495297	0.265106	0.161241	0.464505	0.0333724	0.0735791	0.457678	1.22596	-0.0418835	0.573846	1.32665	-0.361572	0.546364	1.2736	-0.423318	0.794981	0.824134	-0.157774	0.838636	1.18887	0.0316313	0.741376	1.46121	0.0177201	0.989478	1.03179	-0.251339	0.720816	1.49903	-0.147306	1.03919	0.838874	-0.491819	1.04476	0.922713	-0.334991	1.14653	0.0169886	-0.246074	0.91943	0.446193	-0.28454	0.821464	1.26963	-0.152862	0.86179	0.651976	-0.22781	0.929615	0.0197447	-0.400996	0.929504	1.11027	-0.220622	0.987102	0.803356	-0.436594	1.07252	0.82889	-0.436864	0.634439	1.05676	-0.125268	0.784173	0.983015	0.0879832
1759	35.1696	0.717075	1.31249	0.0257085	0.647782	1.22317	-0.0766506	0.567193	0.0891079	0.223657	0.581557	0.796051	0.0416501	0.636458	1.45821	0.0676148	0.366599	1.20486	-0.117006	0.594795	1.49773	-0.111072	0.559315	1.33533	-0.411909	0.430089	1.23412	-0.257589	0.662712	0.0335947	0.257474	0.441635	0.424007	0.0703427	0.554824	1.28874	0.0652642	0.486421	0.591402	0.0721448	0.490963	0.263824	0.167242	0.464508	0.033417	0.0737369	0.441564	1.22607	0.00139745	0.520488	1.33972	-0.321241	0.486379	1.2904	-0.38275	0.772442	0.825249	-0.14915	0.829862	1.18854	0.0405856	0.735786	1.46109	0.0354548	0.952343	1.02734	-0.253049	0.697113	1.50092	-0.125961	0.97438	0.823471	-0.487938	0.997167	0.914155	-0.337471	1.14591	0.0177127	-0.245311	0.913294	0.445414	-0.271428	0.79829	1.2706	-0.14167	0.844879	0.649656	-0.217973	0.929554	0.0196579	-0.400995	0.897389	1.10787	-0.21747	0.927404	0.791688	-0.426204	1.01225	0.815424	-0.436773	0.613927	1.05814	-0.101665	0.779866	0.982494	0.0994331
1760	35.1896	0.706569	1.31259	0.0445741	0.628744	1.2239	-0.051784	0.566168	0.0876238	0.225091	0.571307	0.797792	0.0647423	0.632633	1.45858	0.094147	0.339632	1.20355	-0.0643853	0.571753	1.49844	-0.0785217	0.495404	1.35204	-0.371658	0.386396	1.24043	-0.208963	0.662486	0.0329596	0.257835	0.43567	0.423818	0.0800687	0.546378	1.28725	0.0972253	0.479053	0.591418	0.0868226	0.486814	0.262215	0.17302	0.464635	0.0336483	0.0739342	0.426792	1.22439	0.0453461	0.469367	1.34927	-0.275893	0.428149	1.30361	-0.33642	0.751949	0.825547	-0.136918	0.81984	1.18889	0.0500504	0.727919	1.46157	0.0520387	0.911947	1.02458	-0.254177	0.671737	1.50136	-0.104297	0.903482	0.812006	-0.481963	0.945383	0.90849	-0.339744	1.14426	0.0216963	-0.244051	0.90682	0.446684	-0.258091	0.773548	1.27151	-0.129029	0.828635	0.648128	-0.205351	0.929441	0.0190759	-0.401251	0.86264	1.10675	-0.213686	0.864232	0.783339	-0.413544	0.946899	0.805824	-0.435982	0.594078	1.05818	-0.0768126	0.774302	0.98207	0.111777
1761	35.2096	0.695537	1.31332	0.0637591	0.610445	1.2246	-0.0260624	0.56513	0.0861709	0.226442	0.562081	0.799856	0.087993	0.628013	1.46005	0.119197	0.315695	1.20081	-0.0102726	0.548502	1.49799	-0.046038	0.433882	1.36458	-0.325305	0.345381	1.2442	-0.156638	0.662304	0.0322685	0.258257	0.431092	0.424101	0.0896334	0.538008	1.28599	0.128775	0.472751	0.591902	0.101535	0.483386	0.260756	0.178657	0.464809	0.03413	0.074178	0.413994	1.22178	0.0893315	0.42146	1.35516	-0.226487	0.37276	1.31336	-0.284897	0.734106	0.826175	-0.121593	0.809188	1.19042	0.0607345	0.71826	1.4635	0.0674066	0.868994	1.02316	-0.253592	0.645021	1.50145	-0.0824992	0.829436	0.804068	-0.472347	0.890046	0.904757	-0.33947	1.1412	0.0314508	-0.243518	0.898625	0.451073	-0.246431	0.748603	1.27288	-0.114455	0.813332	0.648999	-0.191441	0.929114	0.018124	-0.402031	0.826448	1.107	-0.207969	0.799203	0.777937	-0.397503	0.878503	0.799322	-0.432052	0.575424	1.05813	-0.0504245	0.767964	0.982522	0.125763
